<mxfile host="app.diagrams.net" modified="2024-06-27T14:34:54.610Z" agent="Mozilla/5.0 (Windows NT 10.0; Win64; x64) AppleWebKit/537.36 (KHTML, like Gecko) Chrome/126.0.0.0 Safari/537.36" version="24.6.3" etag="6cpR0Yd0s2WaUO6z6Lx7" type="github">
  <diagram name="Page-1" id="rlBN_PNB652HLIZeTBpS">
    <mxGraphModel>
      <root>
        <mxCell id="0" />
        <mxCell id="1" parent="0" />
      </root>
    </mxGraphModel>
  </diagram>
</mxfile>
